{
  "accessors": [
    {
      "bufferView": 2,
      "componentType": 5126,
      "count": 2007,
      "max": [
        7.679903030395508,
        25.048173904418945,
        4.572178363800049
      ],
      "min": [
        -6.690611839294434,
        3.408440589904785,
        -4.2668328285217285
      ],
      "type": "VEC3"
    },
    {
      "bufferView": 2,
      "byteOffset": 24084,
      "componentType": 5126,
      "count": 2007,
      "max": [
        0.9998292922973633,
        0.9992573857307434,
        0.9999460577964783
      ],
      "min": [
        -0.9988589286804199,
        -0.9566377401351929,
        -0.9995071291923523
      ],
      "type": "VEC3"
    },
    {
      "bufferView": 3,
      "componentType": 5126,
      "count": 2007,
      "max": [
        0.9931570887565613,
        0.9999396800994873,
        0.999886155128479,
        1.0
      ],
      "min": [
        -0.988467812538147,
        -0.9976290464401245,
        -0.9993488788604736,
        -1.0
      ],
      "type": "VEC4"
    },
    {
      "bufferView": 1,
      "componentType": 5126,
      "count": 2007,
      "max": [
        0.5902933478355408,
        0.9920085072517395
      ],
      "min": [
        0.007991500198841095,
        0.007991552352905273
      ],
      "type": "VEC2"
    },
    {
      "bufferView": 0,
      "componentType": 5125,
      "count": 10734,
      "type": "SCALAR"
    }
  ],
  "asset": {
    "extras": {
      "author": "DJMaesen (https://sketchfab.com/bumstrum)",
      "license": "CC-BY-4.0 (http://creativecommons.org/licenses/by/4.0/)",
      "source": "https://sketchfab.com/3d-models/hand-046563449b144c67a2f8cc54bf86835b",
      "title": "Hand"
    },
    "generator": "Sketchfab-12.66.0",
    "version": "2.0"
  },
  "bufferViews": [
    {
      "buffer": 0,
      "byteLength": 42936,
      "name": "floatBufferViews",
      "target": 34963
    },
    {
      "buffer": 0,
      "byteLength": 16056,
      "byteOffset": 42936,
      "byteStride": 8,
      "name": "floatBufferViews",
      "target": 34962
    },
    {
      "buffer": 0,
      "byteLength": 48168,
      "byteOffset": 58992,
      "byteStride": 12,
      "name": "floatBufferViews",
      "target": 34962
    },
    {
      "buffer": 0,
      "byteLength": 32112,
      "byteOffset": 107160,
      "byteStride": 16,
      "name": "floatBufferViews",
      "target": 34962
    }
  ],
  "buffers": [
    {
      "byteLength": 139272,
      "uri": "scene.bin"
    }
  ],
  "images": [
    {
      "uri": "textures/Scene_-_Root_baseColor.png"
    },
    {
      "uri": "textures/Scene_-_Root_metallicRoughness.png"
    },
    {
      "uri": "textures/Scene_-_Root_normal.png"
    }
  ],
  "materials": [
    {
      "name": "Scene_-_Root",
      "normalTexture": {
        "index": 2
      },
      "occlusionTexture": {
        "index": 1
      },
      "pbrMetallicRoughness": {
        "baseColorTexture": {
          "index": 0
        },
        "metallicRoughnessTexture": {
          "index": 1
        }
      }
    }
  ],
  "meshes": [
    {
      "name": "handlow__0",
      "primitives": [
        {
          "attributes": {
            "NORMAL": 1,
            "POSITION": 0,
            "TANGENT": 2,
            "TEXCOORD_0": 3
          },
          "indices": 4,
          "material": 0,
          "mode": 4
        }
      ]
    }
  ],
  "nodes": [
    {
      "children": [
        1
      ],
      "matrix": [
        1.0,
        0.0,
        0.0,
        0.0,
        0.0,
        2.220446049250313e-16,
        -1.0,
        0.0,
        0.0,
        1.0,
        2.220446049250313e-16,
        0.0,
        0.0,
        0.0,
        0.0,
        1.0
      ],
      "name": "Sketchfab_model"
    },
    {
      "children": [
        2
      ],
      "matrix": [
        1.0,
        0.0,
        0.0,
        0.0,
        0.0,
        0.0,
        1.0,
        0.0,
        0.0,
        -1.0,
        0.0,
        0.0,
        0.0,
        0.0,
        0.0,
        1.0
      ],
      "name": "f66bc81a9f344a40ac66a2994f1e53ef.fbx"
    },
    {
      "children": [
        3
      ],
      "name": "RootNode"
    },
    {
      "children": [
        4
      ],
      "matrix": [
        -0.5855735357433642,
        0.7924653990489675,
        -0.17059374416190093,
        0.0,
        0.35056559582875246,
        0.43732056628250626,
        0.8281633204432444,
        0.0,
        0.7308949290139091,
        0.4251462261581406,
        -0.533894455042609,
        0.0,
        -1.025017499923706,
        2.71852445602417,
        -1.6653345369377348e-16,
        1.0
      ],
      "name": "handlow"
    },
    {
      "mesh": 0,
      "name": "handlow__0"
    }
  ],
  "samplers": [
    {
      "magFilter": 9729,
      "minFilter": 9987,
      "wrapS": 10497,
      "wrapT": 10497
    }
  ],
  "scene": 0,
  "scenes": [
    {
      "name": "Sketchfab_Scene",
      "nodes": [
        0
      ]
    }
  ],
  "textures": [
    {
      "sampler": 0,
      "source": 0
    },
    {
      "sampler": 0,
      "source": 1
    },
    {
      "sampler": 0,
      "source": 2
    }
  ]
}
